<?xml version="1.0" encoding="UTF-8" standalone="no"?>
<!DOCTYPE svg PUBLIC "-//W3C//DTD SVG 1.1//EN"
 "http://www.w3.org/Graphics/SVG/1.1/DTD/svg11.dtd">
<!-- Generated by graphviz version 12.2.1 (20241206.2353)
 -->
<!-- Title: G Pages: 1 -->
<svg width="2913pt" height="807pt"
 viewBox="0.00 0.00 2913.25 806.81" xmlns="http://www.w3.org/2000/svg" xmlns:xlink="http://www.w3.org/1999/xlink">
<g id="graph0" class="graph" transform="scale(1 1) rotate(0) translate(4 802.81)">
<title>G</title>
<polygon fill="white" stroke="none" points="-4,4 -4,-802.81 2909.25,-802.81 2909.25,4 -4,4"/>
<g id="clust1" class="cluster">
<title>cluster_module.alb</title>
<polygon fill="none" stroke="black" points="1125.75,-17.81 1125.75,-202.81 2202.25,-202.81 2202.25,-17.81 1125.75,-17.81"/>
<text text-anchor="middle" x="1664" y="-185.51" font-family="sans-serif" font-size="14.00">module.alb</text>
</g>
<g id="clust2" class="cluster">
<title>cluster_module.asg</title>
<polygon fill="none" stroke="black" points="2222.25,-461.81 2222.25,-538.81 2897.25,-538.81 2897.25,-461.81 2222.25,-461.81"/>
<text text-anchor="middle" x="2559.75" y="-521.51" font-family="sans-serif" font-size="14.00">module.asg</text>
</g>
<g id="clust3" class="cluster">
<title>cluster_module.ec2</title>
<polygon fill="none" stroke="black" points="770.38,-210.81 770.38,-449.81 2111.12,-449.81 2111.12,-210.81 770.38,-210.81"/>
<text text-anchor="middle" x="1440.75" y="-432.51" font-family="sans-serif" font-size="14.00">module.ec2</text>
</g>
<g id="clust4" class="cluster">
<title>cluster_module.vpc</title>
<polygon fill="none" stroke="black" points="8,-457.81 8,-790.81 1743.75,-790.81 1743.75,-457.81 8,-457.81"/>
<text text-anchor="middle" x="875.88" y="-773.51" font-family="sans-serif" font-size="14.00">module.vpc</text>
</g>
<!-- module.alb.aws_lb.tf&#45;alb -->
<g id="node1" class="node">
<title>module.alb.aws_lb.tf&#45;alb</title>
<polygon fill="none" stroke="black" points="1609.75,-93.81 1515.75,-93.81 1515.75,-57.81 1609.75,-57.81 1609.75,-93.81"/>
<text text-anchor="middle" x="1562.75" y="-71.13" font-family="sans-serif" font-size="14.00">aws_lb.tf&#45;alb</text>
</g>
<!-- module.alb.aws_security_group.tf&#45;lb&#45;sg -->
<g id="node6" class="node">
<title>module.alb.aws_security_group.tf&#45;lb&#45;sg</title>
<polygon fill="none" stroke="black" points="1318.5,-86.81 1133.75,-86.81 1133.75,-50.81 1318.5,-50.81 1318.5,-86.81"/>
<text text-anchor="middle" x="1226.12" y="-64.13" font-family="sans-serif" font-size="14.00">aws_security_group.tf&#45;lb&#45;sg</text>
</g>
<!-- module.alb.aws_lb.tf&#45;alb&#45;&gt;module.alb.aws_security_group.tf&#45;lb&#45;sg -->
<g id="edge1" class="edge">
<title>module.alb.aws_lb.tf&#45;alb&#45;&gt;module.alb.aws_security_group.tf&#45;lb&#45;sg</title>
<path fill="none" stroke="black" d="M1515.57,-74.84C1467.98,-73.85 1392.19,-72.26 1330.24,-70.97"/>
<polygon fill="black" stroke="black" points="1330.43,-67.47 1320.36,-70.76 1330.28,-74.47 1330.43,-67.47"/>
</g>
<!-- module.vpc.aws_subnet.public2_subnet -->
<g id="node35" class="node">
<title>module.vpc.aws_subnet.public2_subnet</title>
<polygon fill="none" stroke="black" points="638.88,-541.81 455.62,-541.81 455.62,-505.81 638.88,-505.81 638.88,-541.81"/>
<text text-anchor="middle" x="547.25" y="-519.13" font-family="sans-serif" font-size="14.00">aws_subnet.public2_subnet</text>
</g>
<!-- module.alb.aws_lb.tf&#45;alb&#45;&gt;module.vpc.aws_subnet.public2_subnet -->
<g id="edge2" class="edge">
<title>module.alb.aws_lb.tf&#45;alb&#45;&gt;module.vpc.aws_subnet.public2_subnet</title>
<path fill="none" stroke="black" d="M1515.52,-80.65C1473.39,-84.97 1409.43,-91.29 1353.75,-95.81 1281.61,-101.66 762.38,-96.37 703.75,-138.81 583.99,-225.49 556.32,-420.37 550.04,-494.46"/>
<polygon fill="black" stroke="black" points="546.58,-493.93 549.3,-504.17 553.55,-494.46 546.58,-493.93"/>
</g>
<!-- module.vpc.aws_subnet.public_subnet -->
<g id="node36" class="node">
<title>module.vpc.aws_subnet.public_subnet</title>
<polygon fill="none" stroke="black" points="635.12,-595.81 459.38,-595.81 459.38,-559.81 635.12,-559.81 635.12,-595.81"/>
<text text-anchor="middle" x="547.25" y="-573.13" font-family="sans-serif" font-size="14.00">aws_subnet.public_subnet</text>
</g>
<!-- module.alb.aws_lb.tf&#45;alb&#45;&gt;module.vpc.aws_subnet.public_subnet -->
<g id="edge3" class="edge">
<title>module.alb.aws_lb.tf&#45;alb&#45;&gt;module.vpc.aws_subnet.public_subnet</title>
<path fill="none" stroke="black" d="M1515.56,-84.47C1473.46,-92.26 1409.51,-103.82 1353.75,-112.81 1281.71,-124.42 754.32,-154.2 703.75,-206.81 650.48,-262.22 718.8,-493.35 667.75,-550.81 661.57,-557.76 654.02,-563.12 645.74,-567.24"/>
<polygon fill="black" stroke="black" points="644.56,-563.94 636.72,-571.08 647.29,-570.39 644.56,-563.94"/>
</g>
<!-- module.alb.aws_lb_listener.portfolio_live -->
<g id="node2" class="node">
<title>module.alb.aws_lb_listener.portfolio_live</title>
<polygon fill="none" stroke="black" points="2077.62,-61.81 1888.38,-61.81 1888.38,-25.81 2077.62,-25.81 2077.62,-61.81"/>
<text text-anchor="middle" x="1983" y="-39.13" font-family="sans-serif" font-size="14.00">aws_lb_listener.portfolio_live</text>
</g>
<!-- module.alb.aws_lb_listener.portfolio_live&#45;&gt;module.alb.aws_lb.tf&#45;alb -->
<g id="edge4" class="edge">
<title>module.alb.aws_lb_listener.portfolio_live&#45;&gt;module.alb.aws_lb.tf&#45;alb</title>
<path fill="none" stroke="black" d="M1887.88,-51.01C1806.13,-57.26 1690.35,-66.12 1621.57,-71.38"/>
<polygon fill="black" stroke="black" points="1621.33,-67.89 1611.62,-72.15 1621.86,-74.87 1621.33,-67.89"/>
</g>
<!-- module.alb.aws_lb_target_group.tf&#45;lb_target_group -->
<g id="node3" class="node">
<title>module.alb.aws_lb_target_group.tf&#45;lb_target_group</title>
<polygon fill="none" stroke="black" points="1693,-161.81 1432.5,-161.81 1432.5,-125.81 1693,-125.81 1693,-161.81"/>
<text text-anchor="middle" x="1562.75" y="-139.13" font-family="sans-serif" font-size="14.00">aws_lb_target_group.tf&#45;lb_target_group</text>
</g>
<!-- module.alb.aws_lb_listener.portfolio_live&#45;&gt;module.alb.aws_lb_target_group.tf&#45;lb_target_group -->
<g id="edge5" class="edge">
<title>module.alb.aws_lb_listener.portfolio_live&#45;&gt;module.alb.aws_lb_target_group.tf&#45;lb_target_group</title>
<path fill="none" stroke="black" d="M1888.13,-41.66C1850.12,-44.31 1806.98,-52.02 1771.75,-70.81 1755.07,-79.7 1759.98,-93.13 1743.75,-102.81 1730.79,-110.54 1716.52,-116.81 1701.84,-121.9"/>
<polygon fill="black" stroke="black" points="1700.96,-118.51 1692.54,-124.94 1703.13,-125.17 1700.96,-118.51"/>
</g>
<!-- module.vpc.aws_vpc.vpc -->
<g id="node37" class="node">
<title>module.vpc.aws_vpc.vpc</title>
<polygon fill="none" stroke="black" points="110,-502.81 16,-502.81 16,-466.81 110,-466.81 110,-502.81"/>
<text text-anchor="middle" x="63" y="-480.13" font-family="sans-serif" font-size="14.00">aws_vpc.vpc</text>
</g>
<!-- module.alb.aws_lb_target_group.tf&#45;lb_target_group&#45;&gt;module.vpc.aws_vpc.vpc -->
<g id="edge6" class="edge">
<title>module.alb.aws_lb_target_group.tf&#45;lb_target_group&#45;&gt;module.vpc.aws_vpc.vpc</title>
<path fill="none" stroke="black" d="M1432.03,-158.17C1295.78,-171.99 1075.16,-190.81 884.12,-190.81 884.12,-190.81 884.12,-190.81 546.25,-190.81 352.81,-190.81 294.79,-238.19 146,-361.81 114.63,-387.87 90.61,-428.97 76.9,-456.4"/>
<polygon fill="black" stroke="black" points="73.86,-454.64 72.66,-465.17 80.16,-457.69 73.86,-454.64"/>
</g>
<!-- module.alb.aws_lb_target_group_attachment.tf&#45;lb_target2_group_attachment -->
<g id="node4" class="node">
<title>module.alb.aws_lb_target_group_attachment.tf&#45;lb_target2_group_attachment</title>
<polygon fill="none" stroke="black" points="2194.25,-169.81 1771.75,-169.81 1771.75,-133.81 2194.25,-133.81 2194.25,-169.81"/>
<text text-anchor="middle" x="1983" y="-147.13" font-family="sans-serif" font-size="14.00">aws_lb_target_group_attachment.tf&#45;lb_target2_group_attachment</text>
</g>
<!-- module.alb.aws_lb_target_group_attachment.tf&#45;lb_target2_group_attachment&#45;&gt;module.alb.aws_lb_target_group.tf&#45;lb_target_group -->
<g id="edge7" class="edge">
<title>module.alb.aws_lb_target_group_attachment.tf&#45;lb_target2_group_attachment&#45;&gt;module.alb.aws_lb_target_group.tf&#45;lb_target_group</title>
<path fill="none" stroke="black" d="M1771.34,-147.78C1748.78,-147.35 1726.23,-146.92 1704.77,-146.51"/>
<polygon fill="black" stroke="black" points="1704.88,-143.01 1694.82,-146.32 1704.75,-150.01 1704.88,-143.01"/>
</g>
<!-- module.ec2.aws_instance.ec2_private2 -->
<g id="node14" class="node">
<title>module.ec2.aws_instance.ec2_private2</title>
<polygon fill="none" stroke="black" points="1653.25,-389.81 1472.25,-389.81 1472.25,-353.81 1653.25,-353.81 1653.25,-389.81"/>
<text text-anchor="middle" x="1562.75" y="-367.13" font-family="sans-serif" font-size="14.00">aws_instance.ec2_private2</text>
</g>
<!-- module.alb.aws_lb_target_group_attachment.tf&#45;lb_target2_group_attachment&#45;&gt;module.ec2.aws_instance.ec2_private2 -->
<g id="edge8" class="edge">
<title>module.alb.aws_lb_target_group_attachment.tf&#45;lb_target2_group_attachment&#45;&gt;module.ec2.aws_instance.ec2_private2</title>
<path fill="none" stroke="black" d="M1830.61,-170.27C1808.71,-178.59 1788.09,-190.33 1771.75,-206.81 1735.93,-242.94 1778.92,-281.04 1743.75,-317.81 1722.85,-339.65 1693.5,-352.76 1664.55,-360.59"/>
<polygon fill="black" stroke="black" points="1663.82,-357.17 1654.96,-362.98 1665.51,-363.96 1663.82,-357.17"/>
</g>
<!-- module.alb.aws_lb_target_group_attachment.tf&#45;lb_target_group_attachment -->
<g id="node5" class="node">
<title>module.alb.aws_lb_target_group_attachment.tf&#45;lb_target_group_attachment</title>
<polygon fill="none" stroke="black" points="2190.5,-115.81 1775.5,-115.81 1775.5,-79.81 2190.5,-79.81 2190.5,-115.81"/>
<text text-anchor="middle" x="1983" y="-93.13" font-family="sans-serif" font-size="14.00">aws_lb_target_group_attachment.tf&#45;lb_target_group_attachment</text>
</g>
<!-- module.alb.aws_lb_target_group_attachment.tf&#45;lb_target_group_attachment&#45;&gt;module.alb.aws_lb_target_group.tf&#45;lb_target_group -->
<g id="edge9" class="edge">
<title>module.alb.aws_lb_target_group_attachment.tf&#45;lb_target_group_attachment&#45;&gt;module.alb.aws_lb_target_group.tf&#45;lb_target_group</title>
<path fill="none" stroke="black" d="M1813.99,-116.29C1777.71,-120.28 1739.72,-124.45 1704.61,-128.32"/>
<polygon fill="black" stroke="black" points="1704.38,-124.82 1694.82,-129.39 1705.14,-131.78 1704.38,-124.82"/>
</g>
<!-- module.ec2.aws_instance.ec2_private -->
<g id="node13" class="node">
<title>module.ec2.aws_instance.ec2_private</title>
<polygon fill="none" stroke="black" points="1649.5,-308.81 1476,-308.81 1476,-272.81 1649.5,-272.81 1649.5,-308.81"/>
<text text-anchor="middle" x="1562.75" y="-286.13" font-family="sans-serif" font-size="14.00">aws_instance.ec2_private</text>
</g>
<!-- module.alb.aws_lb_target_group_attachment.tf&#45;lb_target_group_attachment&#45;&gt;module.ec2.aws_instance.ec2_private -->
<g id="edge10" class="edge">
<title>module.alb.aws_lb_target_group_attachment.tf&#45;lb_target_group_attachment&#45;&gt;module.ec2.aws_instance.ec2_private</title>
<path fill="none" stroke="black" d="M1783.8,-116.13C1779.63,-118.78 1775.6,-121.67 1771.75,-124.81 1741.92,-149.16 1769.48,-178.15 1743.75,-206.81 1717.76,-235.76 1679.71,-255.51 1645.29,-268.54"/>
<polygon fill="black" stroke="black" points="1644.36,-265.15 1636.16,-271.86 1646.75,-271.73 1644.36,-265.15"/>
</g>
<!-- module.alb.aws_security_group.tf&#45;lb&#45;sg&#45;&gt;module.vpc.aws_vpc.vpc -->
<g id="edge11" class="edge">
<title>module.alb.aws_security_group.tf&#45;lb&#45;sg&#45;&gt;module.vpc.aws_vpc.vpc</title>
<path fill="none" stroke="black" d="M1151.99,-50.37C960.09,-6.75 436.9,80.8 146,-176.81 103.99,-214.01 77.08,-385.6 67.71,-455.27"/>
<polygon fill="black" stroke="black" points="64.24,-454.8 66.41,-465.17 71.18,-455.71 64.24,-454.8"/>
</g>
<!-- module.asg.aws_autoscaling_group.Auto&#45;Scaling&#45;group&#45;Template -->
<g id="node7" class="node">
<title>module.asg.aws_autoscaling_group.Auto&#45;Scaling&#45;group&#45;Template</title>
<polygon fill="none" stroke="black" points="2889.25,-505.81 2550,-505.81 2550,-469.81 2889.25,-469.81 2889.25,-505.81"/>
<text text-anchor="middle" x="2719.62" y="-483.13" font-family="sans-serif" font-size="14.00">aws_autoscaling_group.Auto&#45;Scaling&#45;group&#45;Template</text>
</g>
<!-- module.asg.aws_launch_template.ec2_launch_template -->
<g id="node8" class="node">
<title>module.asg.aws_launch_template.ec2_launch_template</title>
<polygon fill="none" stroke="black" points="2514,-505.81 2230.25,-505.81 2230.25,-469.81 2514,-469.81 2514,-505.81"/>
<text text-anchor="middle" x="2372.12" y="-483.13" font-family="sans-serif" font-size="14.00">aws_launch_template.ec2_launch_template</text>
</g>
<!-- module.asg.aws_autoscaling_group.Auto&#45;Scaling&#45;group&#45;Template&#45;&gt;module.asg.aws_launch_template.ec2_launch_template -->
<g id="edge12" class="edge">
<title>module.asg.aws_autoscaling_group.Auto&#45;Scaling&#45;group&#45;Template&#45;&gt;module.asg.aws_launch_template.ec2_launch_template</title>
<path fill="none" stroke="black" d="M2549.67,-487.81C2541.74,-487.81 2533.79,-487.81 2525.9,-487.81"/>
<polygon fill="black" stroke="black" points="2525.91,-484.31 2515.91,-487.81 2525.91,-491.31 2525.91,-484.31"/>
</g>
<!-- module.vpc.aws_subnet.private_subnet -->
<g id="node34" class="node">
<title>module.vpc.aws_subnet.private_subnet</title>
<polygon fill="none" stroke="black" points="1317.38,-609.81 1134.88,-609.81 1134.88,-573.81 1317.38,-573.81 1317.38,-609.81"/>
<text text-anchor="middle" x="1226.12" y="-587.13" font-family="sans-serif" font-size="14.00">aws_subnet.private_subnet</text>
</g>
<!-- module.asg.aws_autoscaling_group.Auto&#45;Scaling&#45;group&#45;Template&#45;&gt;module.vpc.aws_subnet.private_subnet -->
<g id="edge13" class="edge">
<title>module.asg.aws_autoscaling_group.Auto&#45;Scaling&#45;group&#45;Template&#45;&gt;module.vpc.aws_subnet.private_subnet</title>
<path fill="none" stroke="black" d="M2615.56,-506.28C2438.19,-537.02 2063.44,-597.42 1743.75,-618.81 1586.77,-629.31 1546.55,-631.74 1389.75,-618.81 1369.9,-617.17 1348.81,-614.43 1328.64,-611.3"/>
<polygon fill="black" stroke="black" points="1329.46,-607.89 1319.04,-609.77 1328.36,-614.8 1329.46,-607.89"/>
</g>
<!-- module.ec2.aws_ami_from_instance.ami&#45;backup -->
<g id="node10" class="node">
<title>module.ec2.aws_ami_from_instance.ami&#45;backup</title>
<polygon fill="none" stroke="black" points="2103.12,-402.81 1862.88,-402.81 1862.88,-366.81 2103.12,-366.81 2103.12,-402.81"/>
<text text-anchor="middle" x="1983" y="-380.13" font-family="sans-serif" font-size="14.00">aws_ami_from_instance.ami&#45;backup</text>
</g>
<!-- module.asg.aws_launch_template.ec2_launch_template&#45;&gt;module.ec2.aws_ami_from_instance.ami&#45;backup -->
<g id="edge14" class="edge">
<title>module.asg.aws_launch_template.ec2_launch_template&#45;&gt;module.ec2.aws_ami_from_instance.ami&#45;backup</title>
<path fill="none" stroke="black" d="M2301.91,-469.39C2235.24,-451.65 2134.41,-424.83 2064.25,-406.16"/>
<polygon fill="black" stroke="black" points="2065.29,-402.81 2054.73,-403.63 2063.49,-409.58 2065.29,-402.81"/>
</g>
<!-- module.ec2.data.aws_ami.ubuntu -->
<g id="node9" class="node">
<title>module.ec2.data.aws_ami.ubuntu</title>
<polygon fill="none" stroke="black" points="957.12,-371.81 809.12,-371.81 809.12,-335.81 957.12,-335.81 957.12,-371.81"/>
<text text-anchor="middle" x="883.12" y="-349.13" font-family="sans-serif" font-size="14.00">data.aws_ami.ubuntu</text>
</g>
<!-- module.ec2.aws_ami_from_instance.ami&#45;backup&#45;&gt;module.ec2.aws_instance.ec2_private2 -->
<g id="edge15" class="edge">
<title>module.ec2.aws_ami_from_instance.ami&#45;backup&#45;&gt;module.ec2.aws_instance.ec2_private2</title>
<path fill="none" stroke="black" d="M1862.43,-381.09C1799.94,-379.15 1724.31,-376.8 1664.78,-374.95"/>
<polygon fill="black" stroke="black" points="1665.1,-371.46 1655,-374.64 1664.88,-378.45 1665.1,-371.46"/>
</g>
<!-- module.ec2.aws_instance.bastion_host -->
<g id="node11" class="node">
<title>module.ec2.aws_instance.bastion_host</title>
<polygon fill="none" stroke="black" points="1315.5,-416.81 1136.75,-416.81 1136.75,-380.81 1315.5,-380.81 1315.5,-416.81"/>
<text text-anchor="middle" x="1226.12" y="-394.13" font-family="sans-serif" font-size="14.00">aws_instance.bastion_host</text>
</g>
<!-- module.ec2.aws_instance.bastion_host&#45;&gt;module.ec2.data.aws_ami.ubuntu -->
<g id="edge16" class="edge">
<title>module.ec2.aws_instance.bastion_host&#45;&gt;module.ec2.data.aws_ami.ubuntu</title>
<path fill="none" stroke="black" d="M1136.42,-387.1C1084.69,-380.28 1019.78,-371.71 968.76,-364.98"/>
<polygon fill="black" stroke="black" points="969.3,-361.52 958.93,-363.68 968.39,-368.46 969.3,-361.52"/>
</g>
<!-- module.ec2.aws_key_pair.Tf&#45;bastion_key -->
<g id="node15" class="node">
<title>module.ec2.aws_key_pair.Tf&#45;bastion_key</title>
<polygon fill="none" stroke="black" points="978.12,-317.81 788.12,-317.81 788.12,-281.81 978.12,-281.81 978.12,-317.81"/>
<text text-anchor="middle" x="883.12" y="-295.13" font-family="sans-serif" font-size="14.00">aws_key_pair.Tf&#45;bastion_key</text>
</g>
<!-- module.ec2.aws_instance.bastion_host&#45;&gt;module.ec2.aws_key_pair.Tf&#45;bastion_key -->
<g id="edge17" class="edge">
<title>module.ec2.aws_instance.bastion_host&#45;&gt;module.ec2.aws_key_pair.Tf&#45;bastion_key</title>
<path fill="none" stroke="black" d="M1136.29,-388.02C1123.03,-384.14 1109.98,-378.89 1098.5,-371.81 1076.71,-358.35 1084.69,-339.6 1062.5,-326.81 1040.52,-314.13 1014.59,-306.77 989.41,-302.64"/>
<polygon fill="black" stroke="black" points="990.19,-299.22 979.79,-301.23 989.18,-306.14 990.19,-299.22"/>
</g>
<!-- module.ec2.aws_security_group.tf&#45;sg&#45;public -->
<g id="node18" class="node">
<title>module.ec2.aws_security_group.tf&#45;sg&#45;public</title>
<polygon fill="none" stroke="black" points="987.88,-263.81 778.38,-263.81 778.38,-227.81 987.88,-227.81 987.88,-263.81"/>
<text text-anchor="middle" x="883.12" y="-241.13" font-family="sans-serif" font-size="14.00">aws_security_group.tf&#45;sg&#45;public</text>
</g>
<!-- module.ec2.aws_instance.bastion_host&#45;&gt;module.ec2.aws_security_group.tf&#45;sg&#45;public -->
<g id="edge18" class="edge">
<title>module.ec2.aws_instance.bastion_host&#45;&gt;module.ec2.aws_security_group.tf&#45;sg&#45;public</title>
<path fill="none" stroke="black" d="M1136.27,-391.86C1122.48,-387.56 1109.27,-381.18 1098.5,-371.81 1063.18,-341.08 1098.72,-302.47 1062.5,-272.81 1044.59,-258.14 1022.15,-249.69 999.3,-245.1"/>
<polygon fill="black" stroke="black" points="1000.01,-241.67 989.55,-243.4 998.81,-248.56 1000.01,-241.67"/>
</g>
<!-- module.ec2.aws_instance.bastion_host&#45;&gt;module.vpc.aws_subnet.public_subnet -->
<g id="edge19" class="edge">
<title>module.ec2.aws_instance.bastion_host&#45;&gt;module.vpc.aws_subnet.public_subnet</title>
<path fill="none" stroke="black" d="M1136.34,-407.13C1006.72,-420.67 773.51,-450.67 703.75,-496.81 679.69,-512.72 691.52,-534.46 667.75,-550.81 661.06,-555.41 653.72,-559.24 646.05,-562.42"/>
<polygon fill="black" stroke="black" points="645,-559.08 636.86,-565.85 647.45,-565.63 645,-559.08"/>
</g>
<!-- module.ec2.aws_instance.bastion_host2 -->
<g id="node12" class="node">
<title>module.ec2.aws_instance.bastion_host2</title>
<polygon fill="none" stroke="black" points="1319.25,-362.81 1133,-362.81 1133,-326.81 1319.25,-326.81 1319.25,-362.81"/>
<text text-anchor="middle" x="1226.12" y="-340.13" font-family="sans-serif" font-size="14.00">aws_instance.bastion_host2</text>
</g>
<!-- module.ec2.aws_instance.bastion_host2&#45;&gt;module.ec2.data.aws_ami.ubuntu -->
<g id="edge20" class="edge">
<title>module.ec2.aws_instance.bastion_host2&#45;&gt;module.ec2.data.aws_ami.ubuntu</title>
<path fill="none" stroke="black" d="M1132.85,-347.24C1081.79,-348.59 1018.79,-350.25 968.97,-351.57"/>
<polygon fill="black" stroke="black" points="969,-348.07 959.09,-351.83 969.18,-355.06 969,-348.07"/>
</g>
<!-- module.ec2.aws_instance.bastion_host2&#45;&gt;module.ec2.aws_key_pair.Tf&#45;bastion_key -->
<g id="edge21" class="edge">
<title>module.ec2.aws_instance.bastion_host2&#45;&gt;module.ec2.aws_key_pair.Tf&#45;bastion_key</title>
<path fill="none" stroke="black" d="M1132.85,-332.63C1088.66,-326.8 1035.52,-319.79 989.73,-313.74"/>
<polygon fill="black" stroke="black" points="990.43,-310.31 980.06,-312.47 989.51,-317.25 990.43,-310.31"/>
</g>
<!-- module.ec2.aws_instance.bastion_host2&#45;&gt;module.ec2.aws_security_group.tf&#45;sg&#45;public -->
<g id="edge22" class="edge">
<title>module.ec2.aws_instance.bastion_host2&#45;&gt;module.ec2.aws_security_group.tf&#45;sg&#45;public</title>
<path fill="none" stroke="black" d="M1132.65,-332.92C1120.65,-329.16 1108.92,-324.24 1098.5,-317.81 1076.71,-304.35 1084.69,-285.6 1062.5,-272.81 1043.35,-261.76 1021.2,-254.76 999.17,-250.4"/>
<polygon fill="black" stroke="black" points="999.97,-246.99 989.51,-248.68 998.74,-253.88 999.97,-246.99"/>
</g>
<!-- module.ec2.aws_instance.bastion_host2&#45;&gt;module.vpc.aws_subnet.public2_subnet -->
<g id="edge23" class="edge">
<title>module.ec2.aws_instance.bastion_host2&#45;&gt;module.vpc.aws_subnet.public2_subnet</title>
<path fill="none" stroke="black" d="M1136.48,-363.3C1123.72,-366.08 1110.76,-368.97 1098.5,-371.81 1082.43,-375.53 1078.76,-378.04 1062.5,-380.81 904.65,-407.64 853.96,-358.35 703.75,-413.81 653.43,-432.39 604.44,-471.59 575.31,-497.82"/>
<polygon fill="black" stroke="black" points="573.04,-495.14 568.04,-504.48 577.77,-500.3 573.04,-495.14"/>
</g>
<!-- module.ec2.aws_instance.ec2_private&#45;&gt;module.ec2.aws_instance.bastion_host -->
<g id="edge24" class="edge">
<title>module.ec2.aws_instance.ec2_private&#45;&gt;module.ec2.aws_instance.bastion_host</title>
<path fill="none" stroke="black" d="M1483.77,-309.23C1453.51,-317.92 1419.13,-329.74 1389.75,-344.81 1371.95,-353.93 1371.96,-363.53 1353.75,-371.81 1345.22,-375.69 1336.11,-379.02 1326.84,-381.88"/>
<polygon fill="black" stroke="black" points="1326,-378.48 1317.35,-384.6 1327.93,-385.21 1326,-378.48"/>
</g>
<!-- module.ec2.aws_key_pair.Tf&#45;pvt&#45;ec2_key -->
<g id="node16" class="node">
<title>module.ec2.aws_key_pair.Tf&#45;pvt&#45;ec2_key</title>
<polygon fill="none" stroke="black" points="1322.25,-308.81 1130,-308.81 1130,-272.81 1322.25,-272.81 1322.25,-308.81"/>
<text text-anchor="middle" x="1226.12" y="-286.13" font-family="sans-serif" font-size="14.00">aws_key_pair.Tf&#45;pvt&#45;ec2_key</text>
</g>
<!-- module.ec2.aws_instance.ec2_private&#45;&gt;module.ec2.aws_key_pair.Tf&#45;pvt&#45;ec2_key -->
<g id="edge25" class="edge">
<title>module.ec2.aws_instance.ec2_private&#45;&gt;module.ec2.aws_key_pair.Tf&#45;pvt&#45;ec2_key</title>
<path fill="none" stroke="black" d="M1475.58,-290.81C1432.46,-290.81 1379.87,-290.81 1334.19,-290.81"/>
<polygon fill="black" stroke="black" points="1334.25,-287.31 1324.25,-290.81 1334.25,-294.31 1334.25,-287.31"/>
</g>
<!-- module.ec2.aws_security_group.tf&#45;sg&#45;private -->
<g id="node17" class="node">
<title>module.ec2.aws_security_group.tf&#45;sg&#45;private</title>
<polygon fill="none" stroke="black" points="1334.25,-254.81 1118,-254.81 1118,-218.81 1334.25,-218.81 1334.25,-254.81"/>
<text text-anchor="middle" x="1226.12" y="-232.13" font-family="sans-serif" font-size="14.00">aws_security_group.tf&#45;sg&#45;private</text>
</g>
<!-- module.ec2.aws_instance.ec2_private&#45;&gt;module.ec2.aws_security_group.tf&#45;sg&#45;private -->
<g id="edge26" class="edge">
<title>module.ec2.aws_instance.ec2_private&#45;&gt;module.ec2.aws_security_group.tf&#45;sg&#45;private</title>
<path fill="none" stroke="black" d="M1475.58,-276.9C1436.11,-270.53 1388.7,-262.88 1345.93,-255.98"/>
<polygon fill="black" stroke="black" points="1346.5,-252.53 1336.07,-254.39 1345.39,-259.44 1346.5,-252.53"/>
</g>
<!-- module.ec2.aws_instance.ec2_private&#45;&gt;module.vpc.aws_subnet.private_subnet -->
<g id="edge27" class="edge">
<title>module.ec2.aws_instance.ec2_private&#45;&gt;module.vpc.aws_subnet.private_subnet</title>
<path fill="none" stroke="black" d="M1475.74,-298.99C1444.4,-306.31 1411.38,-319.86 1389.75,-344.81 1324.84,-419.66 1422.11,-493.09 1353.75,-564.81 1346.57,-572.34 1337.86,-578.02 1328.39,-582.29"/>
<polygon fill="black" stroke="black" points="1327.32,-578.95 1319.27,-585.84 1329.86,-585.48 1327.32,-578.95"/>
</g>
<!-- module.ec2.aws_instance.ec2_private2&#45;&gt;module.ec2.aws_instance.bastion_host -->
<g id="edge28" class="edge">
<title>module.ec2.aws_instance.ec2_private2&#45;&gt;module.ec2.aws_instance.bastion_host</title>
<path fill="none" stroke="black" d="M1472.08,-379.04C1427.36,-382.65 1373.15,-387.03 1327.1,-390.74"/>
<polygon fill="black" stroke="black" points="1327.08,-387.23 1317.39,-391.52 1327.64,-394.21 1327.08,-387.23"/>
</g>
<!-- module.ec2.aws_instance.ec2_private2&#45;&gt;module.ec2.aws_key_pair.Tf&#45;pvt&#45;ec2_key -->
<g id="edge29" class="edge">
<title>module.ec2.aws_instance.ec2_private2&#45;&gt;module.ec2.aws_key_pair.Tf&#45;pvt&#45;ec2_key</title>
<path fill="none" stroke="black" d="M1494.02,-353.42C1453.44,-342.61 1400.77,-328.92 1353.75,-317.81 1345.12,-315.77 1336.14,-313.72 1327.13,-311.7"/>
<polygon fill="black" stroke="black" points="1328.13,-308.34 1317.61,-309.6 1326.62,-315.18 1328.13,-308.34"/>
</g>
<!-- module.ec2.aws_instance.ec2_private2&#45;&gt;module.ec2.aws_security_group.tf&#45;sg&#45;private -->
<g id="edge30" class="edge">
<title>module.ec2.aws_instance.ec2_private2&#45;&gt;module.ec2.aws_security_group.tf&#45;sg&#45;private</title>
<path fill="none" stroke="black" d="M1471.9,-355.89C1443.67,-347.81 1413.66,-335.74 1389.75,-317.81 1366.67,-300.5 1377.61,-280.01 1353.75,-263.81 1350.87,-261.85 1347.87,-260.03 1344.78,-258.34"/>
<polygon fill="black" stroke="black" points="1346.52,-255.3 1336,-254.03 1343.44,-261.58 1346.52,-255.3"/>
</g>
<!-- module.vpc.aws_subnet.private2_subnet -->
<g id="node33" class="node">
<title>module.vpc.aws_subnet.private2_subnet</title>
<polygon fill="none" stroke="black" points="1321.12,-501.81 1131.12,-501.81 1131.12,-465.81 1321.12,-465.81 1321.12,-501.81"/>
<text text-anchor="middle" x="1226.12" y="-479.13" font-family="sans-serif" font-size="14.00">aws_subnet.private2_subnet</text>
</g>
<!-- module.ec2.aws_instance.ec2_private2&#45;&gt;module.vpc.aws_subnet.private2_subnet -->
<g id="edge31" class="edge">
<title>module.ec2.aws_instance.ec2_private2&#45;&gt;module.vpc.aws_subnet.private2_subnet</title>
<path fill="none" stroke="black" d="M1520.16,-390.25C1478.61,-408.17 1412.64,-435.33 1353.75,-453.81 1344.01,-456.86 1333.77,-459.77 1323.51,-462.5"/>
<polygon fill="black" stroke="black" points="1322.65,-459.1 1313.85,-465 1324.4,-465.88 1322.65,-459.1"/>
</g>
<!-- module.ec2.aws_security_group.tf&#45;sg&#45;private&#45;&gt;module.alb.aws_security_group.tf&#45;lb&#45;sg -->
<g id="edge32" class="edge">
<title>module.ec2.aws_security_group.tf&#45;sg&#45;private&#45;&gt;module.alb.aws_security_group.tf&#45;lb&#45;sg</title>
<path fill="none" stroke="black" d="M1226.12,-218.4C1226.12,-178.42 1226.12,-138.44 1226.12,-98.46"/>
<polygon fill="black" stroke="black" points="1229.63,-98.7 1226.13,-88.7 1222.63,-98.7 1229.63,-98.7"/>
</g>
<!-- module.ec2.aws_security_group.tf&#45;sg&#45;private&#45;&gt;module.ec2.aws_security_group.tf&#45;sg&#45;public -->
<g id="edge33" class="edge">
<title>module.ec2.aws_security_group.tf&#45;sg&#45;private&#45;&gt;module.ec2.aws_security_group.tf&#45;sg&#45;public</title>
<path fill="none" stroke="black" d="M1117.7,-239.64C1080.03,-240.64 1037.58,-241.76 999.3,-242.77"/>
<polygon fill="black" stroke="black" points="999.51,-239.26 989.61,-243.02 999.7,-246.26 999.51,-239.26"/>
</g>
<!-- module.ec2.aws_security_group.tf&#45;sg&#45;public&#45;&gt;module.vpc.aws_vpc.vpc -->
<g id="edge34" class="edge">
<title>module.ec2.aws_security_group.tf&#45;sg&#45;public&#45;&gt;module.vpc.aws_vpc.vpc</title>
<path fill="none" stroke="black" d="M778.27,-258.49C753.68,-262.33 727.66,-267.08 703.75,-272.81 483.78,-325.5 231.23,-419.5 120.73,-462.38"/>
<polygon fill="black" stroke="black" points="119.63,-459.05 111.58,-465.94 122.17,-465.57 119.63,-459.05"/>
</g>
<!-- module.vpc.aws_eip.eip&#45;nat -->
<g id="node19" class="node">
<title>module.vpc.aws_eip.eip&#45;nat</title>
<polygon fill="none" stroke="black" points="603.62,-757.81 490.88,-757.81 490.88,-721.81 603.62,-721.81 603.62,-757.81"/>
<text text-anchor="middle" x="547.25" y="-735.13" font-family="sans-serif" font-size="14.00">aws_eip.eip&#45;nat</text>
</g>
<!-- module.vpc.aws_internet_gateway.terraform_igw -->
<g id="node21" class="node">
<title>module.vpc.aws_internet_gateway.terraform_igw</title>
<polygon fill="none" stroke="black" points="390.75,-676.81 146,-676.81 146,-640.81 390.75,-640.81 390.75,-676.81"/>
<text text-anchor="middle" x="268.38" y="-654.13" font-family="sans-serif" font-size="14.00">aws_internet_gateway.terraform_igw</text>
</g>
<!-- module.vpc.aws_eip.eip&#45;nat&#45;&gt;module.vpc.aws_internet_gateway.terraform_igw -->
<g id="edge35" class="edge">
<title>module.vpc.aws_eip.eip&#45;nat&#45;&gt;module.vpc.aws_internet_gateway.terraform_igw</title>
<path fill="none" stroke="black" d="M490.6,-728.55C470.38,-724.11 447.42,-718.67 426.75,-712.81 394.22,-703.58 358.54,-691.5 329.39,-681.11"/>
<polygon fill="black" stroke="black" points="330.58,-677.82 319.98,-677.73 328.21,-684.41 330.58,-677.82"/>
</g>
<!-- module.vpc.aws_eip.eip&#45;nat2 -->
<g id="node20" class="node">
<title>module.vpc.aws_eip.eip&#45;nat2</title>
<polygon fill="none" stroke="black" points="607.38,-649.81 487.12,-649.81 487.12,-613.81 607.38,-613.81 607.38,-649.81"/>
<text text-anchor="middle" x="547.25" y="-627.13" font-family="sans-serif" font-size="14.00">aws_eip.eip&#45;nat2</text>
</g>
<!-- module.vpc.aws_eip.eip&#45;nat2&#45;&gt;module.vpc.aws_internet_gateway.terraform_igw -->
<g id="edge36" class="edge">
<title>module.vpc.aws_eip.eip&#45;nat2&#45;&gt;module.vpc.aws_internet_gateway.terraform_igw</title>
<path fill="none" stroke="black" d="M486.85,-637.6C461.99,-640.03 432,-642.95 402.35,-645.84"/>
<polygon fill="black" stroke="black" points="402.13,-642.35 392.52,-646.8 402.81,-649.31 402.13,-642.35"/>
</g>
<!-- module.vpc.aws_internet_gateway.terraform_igw&#45;&gt;module.vpc.aws_vpc.vpc -->
<g id="edge37" class="edge">
<title>module.vpc.aws_internet_gateway.terraform_igw&#45;&gt;module.vpc.aws_vpc.vpc</title>
<path fill="none" stroke="black" d="M243.19,-640.4C218.36,-621.28 178.82,-590.25 146,-561.81 127.2,-545.51 106.8,-526.37 91.05,-511.24"/>
<polygon fill="black" stroke="black" points="93.54,-508.77 83.91,-504.35 88.67,-513.81 93.54,-508.77"/>
</g>
<!-- module.vpc.aws_nat_gateway.terraform&#45;NAT&#45;public1 -->
<g id="node22" class="node">
<title>module.vpc.aws_nat_gateway.terraform&#45;NAT&#45;public1</title>
<polygon fill="none" stroke="black" points="1016,-757.81 750.25,-757.81 750.25,-721.81 1016,-721.81 1016,-757.81"/>
<text text-anchor="middle" x="883.12" y="-735.13" font-family="sans-serif" font-size="14.00">aws_nat_gateway.terraform&#45;NAT&#45;public1</text>
</g>
<!-- module.vpc.aws_nat_gateway.terraform&#45;NAT&#45;public1&#45;&gt;module.vpc.aws_eip.eip&#45;nat -->
<g id="edge38" class="edge">
<title>module.vpc.aws_nat_gateway.terraform&#45;NAT&#45;public1&#45;&gt;module.vpc.aws_eip.eip&#45;nat</title>
<path fill="none" stroke="black" d="M750.17,-739.81C703.88,-739.81 653.84,-739.81 615.16,-739.81"/>
<polygon fill="black" stroke="black" points="615.56,-736.31 605.56,-739.81 615.56,-743.31 615.56,-736.31"/>
</g>
<!-- module.vpc.aws_nat_gateway.terraform&#45;NAT&#45;public1&#45;&gt;module.vpc.aws_subnet.public_subnet -->
<g id="edge39" class="edge">
<title>module.vpc.aws_nat_gateway.terraform&#45;NAT&#45;public1&#45;&gt;module.vpc.aws_subnet.public_subnet</title>
<path fill="none" stroke="black" d="M750.19,-736.8C733.25,-731.75 717.17,-724.1 703.75,-712.81 665.04,-680.23 705.26,-638.76 667.75,-604.81 661.34,-599 653.94,-594.36 646.04,-590.66"/>
<polygon fill="black" stroke="black" points="647.39,-587.43 636.81,-586.89 644.74,-593.91 647.39,-587.43"/>
</g>
<!-- module.vpc.aws_nat_gateway.terraform&#45;NAT&#45;public2 -->
<g id="node23" class="node">
<title>module.vpc.aws_nat_gateway.terraform&#45;NAT&#45;public2</title>
<polygon fill="none" stroke="black" points="1016,-595.81 750.25,-595.81 750.25,-559.81 1016,-559.81 1016,-595.81"/>
<text text-anchor="middle" x="883.12" y="-573.13" font-family="sans-serif" font-size="14.00">aws_nat_gateway.terraform&#45;NAT&#45;public2</text>
</g>
<!-- module.vpc.aws_nat_gateway.terraform&#45;NAT&#45;public2&#45;&gt;module.vpc.aws_eip.eip&#45;nat2 -->
<g id="edge40" class="edge">
<title>module.vpc.aws_nat_gateway.terraform&#45;NAT&#45;public2&#45;&gt;module.vpc.aws_eip.eip&#45;nat2</title>
<path fill="none" stroke="black" d="M757.8,-596.27C739.66,-599.07 721.22,-601.97 703.75,-604.81 675.94,-609.33 645.39,-614.57 618.78,-619.23"/>
<polygon fill="black" stroke="black" points="618.38,-615.75 609.13,-620.92 619.59,-622.64 618.38,-615.75"/>
</g>
<!-- module.vpc.aws_nat_gateway.terraform&#45;NAT&#45;public2&#45;&gt;module.vpc.aws_subnet.public2_subnet -->
<g id="edge41" class="edge">
<title>module.vpc.aws_nat_gateway.terraform&#45;NAT&#45;public2&#45;&gt;module.vpc.aws_subnet.public2_subnet</title>
<path fill="none" stroke="black" d="M757.8,-559.34C739.66,-556.55 721.22,-553.65 703.75,-550.81 686.47,-548 668.14,-544.91 650.35,-541.86"/>
<polygon fill="black" stroke="black" points="650.99,-538.42 640.54,-540.17 649.81,-545.32 650.99,-538.42"/>
</g>
<!-- module.vpc.aws_network_acl.private_subnet -->
<g id="node24" class="node">
<title>module.vpc.aws_network_acl.private_subnet</title>
<polygon fill="none" stroke="black" points="1670.88,-555.81 1454.62,-555.81 1454.62,-519.81 1670.88,-519.81 1670.88,-555.81"/>
<text text-anchor="middle" x="1562.75" y="-533.13" font-family="sans-serif" font-size="14.00">aws_network_acl.private_subnet</text>
</g>
<!-- module.vpc.aws_network_acl.private_subnet&#45;&gt;module.vpc.aws_subnet.private2_subnet -->
<g id="edge42" class="edge">
<title>module.vpc.aws_network_acl.private_subnet&#45;&gt;module.vpc.aws_subnet.private2_subnet</title>
<path fill="none" stroke="black" d="M1454.38,-521.1C1432.96,-517.73 1410.64,-514.18 1389.75,-510.81 1371.21,-507.81 1351.49,-504.58 1332.41,-501.43"/>
<polygon fill="black" stroke="black" points="1333.2,-498.01 1322.76,-499.83 1332.05,-504.92 1333.2,-498.01"/>
</g>
<!-- module.vpc.aws_network_acl.private_subnet&#45;&gt;module.vpc.aws_subnet.private_subnet -->
<g id="edge43" class="edge">
<title>module.vpc.aws_network_acl.private_subnet&#45;&gt;module.vpc.aws_subnet.private_subnet</title>
<path fill="none" stroke="black" d="M1454.38,-554.51C1432.96,-557.89 1410.64,-561.43 1389.75,-564.81 1370.08,-567.98 1349.09,-571.43 1328.94,-574.76"/>
<polygon fill="black" stroke="black" points="1328.63,-571.27 1319.34,-576.35 1329.78,-578.17 1328.63,-571.27"/>
</g>
<!-- module.vpc.aws_network_acl.public_subnet -->
<g id="node25" class="node">
<title>module.vpc.aws_network_acl.public_subnet</title>
<polygon fill="none" stroke="black" points="987.88,-541.81 778.38,-541.81 778.38,-505.81 987.88,-505.81 987.88,-541.81"/>
<text text-anchor="middle" x="883.12" y="-519.13" font-family="sans-serif" font-size="14.00">aws_network_acl.public_subnet</text>
</g>
<!-- module.vpc.aws_network_acl.public_subnet&#45;&gt;module.vpc.aws_subnet.public2_subnet -->
<g id="edge44" class="edge">
<title>module.vpc.aws_network_acl.public_subnet&#45;&gt;module.vpc.aws_subnet.public2_subnet</title>
<path fill="none" stroke="black" d="M778.32,-523.81C737.63,-523.81 691.09,-523.81 650.55,-523.81"/>
<polygon fill="black" stroke="black" points="650.8,-520.31 640.8,-523.81 650.8,-527.31 650.8,-520.31"/>
</g>
<!-- module.vpc.aws_network_acl.public_subnet&#45;&gt;module.vpc.aws_subnet.public_subnet -->
<g id="edge45" class="edge">
<title>module.vpc.aws_network_acl.public_subnet&#45;&gt;module.vpc.aws_subnet.public_subnet</title>
<path fill="none" stroke="black" d="M778.31,-539.13C753.84,-542.85 727.86,-546.89 703.75,-550.81 685.21,-553.82 665.45,-557.16 646.45,-560.42"/>
<polygon fill="black" stroke="black" points="646.12,-556.93 636.86,-562.08 647.31,-563.83 646.12,-556.93"/>
</g>
<!-- module.vpc.aws_route_table.private2_terraform_rt -->
<g id="node26" class="node">
<title>module.vpc.aws_route_table.private2_terraform_rt</title>
<polygon fill="none" stroke="black" points="1353.75,-555.81 1098.5,-555.81 1098.5,-519.81 1353.75,-519.81 1353.75,-555.81"/>
<text text-anchor="middle" x="1226.12" y="-533.13" font-family="sans-serif" font-size="14.00">aws_route_table.private2_terraform_rt</text>
</g>
<!-- module.vpc.aws_route_table.private2_terraform_rt&#45;&gt;module.vpc.aws_nat_gateway.terraform&#45;NAT&#45;public2 -->
<g id="edge46" class="edge">
<title>module.vpc.aws_route_table.private2_terraform_rt&#45;&gt;module.vpc.aws_nat_gateway.terraform&#45;NAT&#45;public2</title>
<path fill="none" stroke="black" d="M1098.15,-552.7C1075.2,-555.39 1051.13,-558.22 1027.75,-560.96"/>
<polygon fill="black" stroke="black" points="1027.37,-557.48 1017.84,-562.12 1028.18,-564.43 1027.37,-557.48"/>
</g>
<!-- module.vpc.aws_route_table.private_terraform_rt -->
<g id="node27" class="node">
<title>module.vpc.aws_route_table.private_terraform_rt</title>
<polygon fill="none" stroke="black" points="1350,-710.81 1102.25,-710.81 1102.25,-674.81 1350,-674.81 1350,-710.81"/>
<text text-anchor="middle" x="1226.12" y="-688.13" font-family="sans-serif" font-size="14.00">aws_route_table.private_terraform_rt</text>
</g>
<!-- module.vpc.aws_route_table.private_terraform_rt&#45;&gt;module.vpc.aws_nat_gateway.terraform&#45;NAT&#45;public1 -->
<g id="edge47" class="edge">
<title>module.vpc.aws_route_table.private_terraform_rt&#45;&gt;module.vpc.aws_nat_gateway.terraform&#45;NAT&#45;public1</title>
<path fill="none" stroke="black" d="M1102.02,-709.78C1077.86,-713.11 1052.33,-716.62 1027.58,-720.04"/>
<polygon fill="black" stroke="black" points="1027.2,-716.56 1017.77,-721.39 1028.15,-723.49 1027.2,-716.56"/>
</g>
<!-- module.vpc.aws_route_table.public_terraform_rt -->
<g id="node28" class="node">
<title>module.vpc.aws_route_table.public_terraform_rt</title>
<polygon fill="none" stroke="black" points="667.75,-703.81 426.75,-703.81 426.75,-667.81 667.75,-667.81 667.75,-703.81"/>
<text text-anchor="middle" x="547.25" y="-681.13" font-family="sans-serif" font-size="14.00">aws_route_table.public_terraform_rt</text>
</g>
<!-- module.vpc.aws_route_table.public_terraform_rt&#45;&gt;module.vpc.aws_internet_gateway.terraform_igw -->
<g id="edge48" class="edge">
<title>module.vpc.aws_route_table.public_terraform_rt&#45;&gt;module.vpc.aws_internet_gateway.terraform_igw</title>
<path fill="none" stroke="black" d="M426.42,-674.12C418.47,-673.35 410.44,-672.56 402.44,-671.78"/>
<polygon fill="black" stroke="black" points="402.94,-668.32 392.65,-670.83 402.26,-675.28 402.94,-668.32"/>
</g>
<!-- module.vpc.aws_route_table_association.pub&#45;rt&#45;assoc&#45;pub&#45;subnet&#45;1 -->
<g id="node29" class="node">
<title>module.vpc.aws_route_table_association.pub&#45;rt&#45;assoc&#45;pub&#45;subnet&#45;1</title>
<polygon fill="none" stroke="black" points="1062.5,-703.81 703.75,-703.81 703.75,-667.81 1062.5,-667.81 1062.5,-703.81"/>
<text text-anchor="middle" x="883.12" y="-681.13" font-family="sans-serif" font-size="14.00">aws_route_table_association.pub&#45;rt&#45;assoc&#45;pub&#45;subnet&#45;1</text>
</g>
<!-- module.vpc.aws_route_table_association.pub&#45;rt&#45;assoc&#45;pub&#45;subnet&#45;1&#45;&gt;module.vpc.aws_route_table.public_terraform_rt -->
<g id="edge49" class="edge">
<title>module.vpc.aws_route_table_association.pub&#45;rt&#45;assoc&#45;pub&#45;subnet&#45;1&#45;&gt;module.vpc.aws_route_table.public_terraform_rt</title>
<path fill="none" stroke="black" d="M703.46,-685.81C695.44,-685.81 687.45,-685.81 679.58,-685.81"/>
<polygon fill="black" stroke="black" points="679.64,-682.31 669.64,-685.81 679.64,-689.31 679.64,-682.31"/>
</g>
<!-- module.vpc.aws_route_table_association.pub&#45;rt&#45;assoc&#45;pub&#45;subnet&#45;1&#45;&gt;module.vpc.aws_subnet.public_subnet -->
<g id="edge50" class="edge">
<title>module.vpc.aws_route_table_association.pub&#45;rt&#45;assoc&#45;pub&#45;subnet&#45;1&#45;&gt;module.vpc.aws_subnet.public_subnet</title>
<path fill="none" stroke="black" d="M719.46,-667.44C714.03,-664.87 708.77,-662 703.75,-658.81 679.41,-643.33 691.52,-621.15 667.75,-604.81 661.06,-600.21 653.72,-596.38 646.05,-593.2"/>
<polygon fill="black" stroke="black" points="647.45,-589.98 636.86,-589.77 645,-596.54 647.45,-589.98"/>
</g>
<!-- module.vpc.aws_route_table_association.pub&#45;rt&#45;assoc&#45;pub&#45;subnet&#45;2 -->
<g id="node30" class="node">
<title>module.vpc.aws_route_table_association.pub&#45;rt&#45;assoc&#45;pub&#45;subnet&#45;2</title>
<polygon fill="none" stroke="black" points="1062.5,-649.81 703.75,-649.81 703.75,-613.81 1062.5,-613.81 1062.5,-649.81"/>
<text text-anchor="middle" x="883.12" y="-627.13" font-family="sans-serif" font-size="14.00">aws_route_table_association.pub&#45;rt&#45;assoc&#45;pub&#45;subnet&#45;2</text>
</g>
<!-- module.vpc.aws_route_table_association.pub&#45;rt&#45;assoc&#45;pub&#45;subnet&#45;2&#45;&gt;module.vpc.aws_route_table.public_terraform_rt -->
<g id="edge51" class="edge">
<title>module.vpc.aws_route_table_association.pub&#45;rt&#45;assoc&#45;pub&#45;subnet&#45;2&#45;&gt;module.vpc.aws_route_table.public_terraform_rt</title>
<path fill="none" stroke="black" d="M757.8,-650.27C739.66,-653.07 721.22,-655.97 703.75,-658.81 690.86,-660.9 677.38,-663.15 663.98,-665.43"/>
<polygon fill="black" stroke="black" points="663.51,-661.96 654.25,-667.09 664.69,-668.86 663.51,-661.96"/>
</g>
<!-- module.vpc.aws_route_table_association.pub&#45;rt&#45;assoc&#45;pub&#45;subnet&#45;2&#45;&gt;module.vpc.aws_subnet.public2_subnet -->
<g id="edge52" class="edge">
<title>module.vpc.aws_route_table_association.pub&#45;rt&#45;assoc&#45;pub&#45;subnet&#45;2&#45;&gt;module.vpc.aws_subnet.public2_subnet</title>
<path fill="none" stroke="black" d="M719.46,-613.44C714.03,-610.87 708.77,-608 703.75,-604.81 679.41,-589.33 691.52,-567.15 667.75,-550.81 662.06,-546.89 655.89,-543.54 649.45,-540.66"/>
<polygon fill="black" stroke="black" points="651.13,-537.56 640.55,-537.09 648.52,-544.06 651.13,-537.56"/>
</g>
<!-- module.vpc.aws_route_table_association.pvt&#45;rt&#45;assoc&#45;pvt&#45;subnet -->
<g id="node31" class="node">
<title>module.vpc.aws_route_table_association.pvt&#45;rt&#45;assoc&#45;pvt&#45;subnet</title>
<polygon fill="none" stroke="black" points="1732,-609.81 1393.5,-609.81 1393.5,-573.81 1732,-573.81 1732,-609.81"/>
<text text-anchor="middle" x="1562.75" y="-587.13" font-family="sans-serif" font-size="14.00">aws_route_table_association.pvt&#45;rt&#45;assoc&#45;pvt&#45;subnet</text>
</g>
<!-- module.vpc.aws_route_table_association.pvt&#45;rt&#45;assoc&#45;pvt&#45;subnet&#45;&gt;module.vpc.aws_route_table.private_terraform_rt -->
<g id="edge53" class="edge">
<title>module.vpc.aws_route_table_association.pvt&#45;rt&#45;assoc&#45;pvt&#45;subnet&#45;&gt;module.vpc.aws_route_table.private_terraform_rt</title>
<path fill="none" stroke="black" d="M1500.76,-610.22C1443.97,-627.36 1359.28,-652.92 1299.18,-671.06"/>
<polygon fill="black" stroke="black" points="1298.27,-667.68 1289.71,-673.92 1300.29,-674.38 1298.27,-667.68"/>
</g>
<!-- module.vpc.aws_route_table_association.pvt&#45;rt&#45;assoc&#45;pvt&#45;subnet&#45;&gt;module.vpc.aws_subnet.private_subnet -->
<g id="edge54" class="edge">
<title>module.vpc.aws_route_table_association.pvt&#45;rt&#45;assoc&#45;pvt&#45;subnet&#45;&gt;module.vpc.aws_subnet.private_subnet</title>
<path fill="none" stroke="black" d="M1393.46,-591.81C1371.45,-591.81 1349.47,-591.81 1329.03,-591.81"/>
<polygon fill="black" stroke="black" points="1329.03,-588.31 1319.03,-591.81 1329.03,-595.31 1329.03,-588.31"/>
</g>
<!-- module.vpc.aws_route_table_association.pvt2&#45;rt&#45;assoc&#45;pvt&#45;subnet -->
<g id="node32" class="node">
<title>module.vpc.aws_route_table_association.pvt2&#45;rt&#45;assoc&#45;pvt&#45;subnet</title>
<polygon fill="none" stroke="black" points="1735.75,-501.81 1389.75,-501.81 1389.75,-465.81 1735.75,-465.81 1735.75,-501.81"/>
<text text-anchor="middle" x="1562.75" y="-479.13" font-family="sans-serif" font-size="14.00">aws_route_table_association.pvt2&#45;rt&#45;assoc&#45;pvt&#45;subnet</text>
</g>
<!-- module.vpc.aws_route_table_association.pvt2&#45;rt&#45;assoc&#45;pvt&#45;subnet&#45;&gt;module.vpc.aws_route_table.private2_terraform_rt -->
<g id="edge55" class="edge">
<title>module.vpc.aws_route_table_association.pvt2&#45;rt&#45;assoc&#45;pvt&#45;subnet&#45;&gt;module.vpc.aws_route_table.private2_terraform_rt</title>
<path fill="none" stroke="black" d="M1443.3,-502.26C1425.35,-505.1 1407.06,-508.01 1389.75,-510.81 1376.37,-512.97 1362.38,-515.25 1348.46,-517.54"/>
<polygon fill="black" stroke="black" points="1348.12,-514.05 1338.82,-519.13 1349.26,-520.96 1348.12,-514.05"/>
</g>
<!-- module.vpc.aws_route_table_association.pvt2&#45;rt&#45;assoc&#45;pvt&#45;subnet&#45;&gt;module.vpc.aws_subnet.private2_subnet -->
<g id="edge56" class="edge">
<title>module.vpc.aws_route_table_association.pvt2&#45;rt&#45;assoc&#45;pvt&#45;subnet&#45;&gt;module.vpc.aws_subnet.private2_subnet</title>
<path fill="none" stroke="black" d="M1389.54,-483.81C1370.27,-483.81 1351.08,-483.81 1333.01,-483.81"/>
<polygon fill="black" stroke="black" points="1333.12,-480.31 1323.12,-483.81 1333.12,-487.31 1333.12,-480.31"/>
</g>
<!-- module.vpc.aws_subnet.private2_subnet&#45;&gt;module.vpc.aws_vpc.vpc -->
<g id="edge57" class="edge">
<title>module.vpc.aws_subnet.private2_subnet&#45;&gt;module.vpc.aws_vpc.vpc</title>
<path fill="none" stroke="black" d="M1130.96,-482.45C1108.53,-482.19 1084.66,-481.94 1062.5,-481.81 655.17,-479.3 553.27,-474.36 146,-481.81 138.16,-481.95 129.9,-482.17 121.76,-482.43"/>
<polygon fill="black" stroke="black" points="121.78,-478.93 111.91,-482.76 122.02,-485.92 121.78,-478.93"/>
</g>
<!-- module.vpc.aws_subnet.private_subnet&#45;&gt;module.vpc.aws_vpc.vpc -->
<g id="edge58" class="edge">
<title>module.vpc.aws_subnet.private_subnet&#45;&gt;module.vpc.aws_vpc.vpc</title>
<path fill="none" stroke="black" d="M1134.38,-582.65C1121.51,-578.55 1109.08,-572.8 1098.5,-564.81 1071.21,-544.2 1091.69,-514.62 1062.5,-496.81 1042.33,-484.5 331.62,-484.45 121.77,-484.71"/>
<polygon fill="black" stroke="black" points="121.93,-481.21 111.93,-484.72 121.93,-488.21 121.93,-481.21"/>
</g>
<!-- module.vpc.aws_subnet.public2_subnet&#45;&gt;module.vpc.aws_vpc.vpc -->
<g id="edge59" class="edge">
<title>module.vpc.aws_subnet.public2_subnet&#45;&gt;module.vpc.aws_vpc.vpc</title>
<path fill="none" stroke="black" d="M455.23,-516.67C374.1,-510.28 252.12,-500.58 146,-491.81 138.16,-491.16 129.9,-490.47 121.76,-489.78"/>
<polygon fill="black" stroke="black" points="122.17,-486.3 111.91,-488.94 121.57,-493.28 122.17,-486.3"/>
</g>
<!-- module.vpc.aws_subnet.public_subnet&#45;&gt;module.vpc.aws_vpc.vpc -->
<g id="edge60" class="edge">
<title>module.vpc.aws_subnet.public_subnet&#45;&gt;module.vpc.aws_vpc.vpc</title>
<path fill="none" stroke="black" d="M459.15,-564.59C377.79,-551.71 253.12,-530.63 146,-506.81 137.99,-505.03 129.58,-502.98 121.33,-500.86"/>
<polygon fill="black" stroke="black" points="122.25,-497.49 111.69,-498.34 120.48,-504.26 122.25,-497.49"/>
</g>
</g>
</svg>
